<svg data-v-423bf9ae="" xmlns="http://www.w3.org/2000/svg" viewBox="0 0 366.02818900195876 60" class="font"><!----><!----><!----><g data-v-423bf9ae="" id="099bf97f-0453-4492-b2bb-23d333adb984" fill="black" transform="matrix(5.633802890777588,0,0,5.633802890777588,-2.4788568019866943,-32.05633544921875)"><path d="M12.91 16.19L11.59 13.78L3.28 13.78L1.97 16.19L0.44 16.19L6.56 5.69L8.31 5.69L14.44 16.19L12.91 16.19ZM3.94 12.69L10.94 12.69L7.44 6.56L3.94 12.69ZM20.34 16.34L20.34 16.34Q19.03 16.34 18.12 16.16Q17.20 15.98 16.63 15.53Q16.05 15.09 15.79 14.34Q15.53 13.60 15.53 12.47L15.53 12.47Q15.53 11.18 15.79 10.33Q16.05 9.49 16.63 8.99Q17.20 8.49 18.12 8.29Q19.03 8.09 20.34 8.09L20.34 8.09Q21.28 8.09 21.97 8.23Q22.65 8.37 23.14 8.63Q23.63 8.89 23.94 9.26Q24.24 9.63 24.41 10.03Q24.59 10.44 24.65 10.99Q24.72 11.53 24.72 12.14L24.72 12.14L24.61 12.58L16.84 12.58Q16.84 13.48 17.02 14.06Q17.20 14.64 17.61 14.90Q18.02 15.17 18.69 15.24Q19.36 15.31 20.34 15.31L20.34 15.31Q21.25 15.31 21.84 15.26Q22.43 15.21 22.78 15.07Q23.13 14.92 23.27 14.67Q23.41 14.41 23.41 14L23.41 14L24.72 14Q24.72 14.64 24.50 15.08Q24.27 15.53 23.76 15.81Q23.25 16.08 22.41 16.21Q21.57 16.34 20.34 16.34ZM20.34 9.19L20.34 9.19Q19.69 9.19 19.17 9.21Q18.66 9.24 18.27 9.33Q17.88 9.43 17.61 9.60Q17.34 9.78 17.17 10.01Q17.00 10.25 16.92 10.67Q16.84 11.10 16.84 11.70L16.84 11.70L23.41 11.70Q23.41 10.90 23.24 10.45Q23.06 9.99 22.70 9.70Q22.33 9.41 21.75 9.30Q21.16 9.19 20.34 9.19ZM33.03 12.69L34.13 12.69Q34.13 13.69 33.96 14.37Q33.80 15.04 33.41 15.44Q33.02 15.85 32.40 16.02Q31.77 16.19 30.84 16.19L30.84 16.19Q29.95 16.19 29.34 16.05Q28.73 15.91 28.36 15.59Q27.98 15.26 27.82 14.71Q27.65 14.16 27.65 13.34L27.65 13.34L27.65 9.39L26.03 9.39L26.03 8.31L27.65 8.31L27.65 6.16L28.96 6.16L28.96 8.31L33.91 8.31L33.91 9.39L28.96 9.39L28.96 13.34Q28.96 14 29.06 14.36Q29.16 14.71 29.38 14.88Q29.60 15.04 29.96 15.07Q30.32 15.09 30.84 15.09L30.84 15.09Q31.25 15.09 31.57 15.08Q31.90 15.07 32.14 14.99Q32.38 14.92 32.55 14.78Q32.72 14.63 32.83 14.36Q32.94 14.10 32.98 13.69Q33.03 13.28 33.03 12.69L33.03 12.69ZM45.06 16.19L43.75 16.19L43.75 11.74Q43.75 11.03 43.64 10.54Q43.53 10.06 43.20 9.75Q42.88 9.45 42.27 9.32Q41.67 9.19 40.69 9.19L40.69 9.19Q39.62 9.19 38.94 9.34Q38.26 9.50 37.87 9.77Q37.48 10.05 37.33 10.44Q37.19 10.83 37.19 11.31L37.19 11.31L37.19 16.19L35.88 16.19L35.88 5.69L37.19 5.69L37.19 9.56Q37.32 9.24 37.58 9.00Q37.83 8.77 38.16 8.61Q38.49 8.44 38.88 8.34Q39.26 8.24 39.65 8.19Q40.04 8.13 40.42 8.11Q40.80 8.09 41.13 8.09L41.13 8.09Q42 8.09 42.63 8.20Q43.26 8.31 43.71 8.51Q44.15 8.72 44.41 9.03Q44.68 9.34 44.83 9.74Q44.97 10.15 45.02 10.65Q45.07 11.16 45.07 11.74L45.07 11.74L45.06 16.19ZM51.41 16.34L51.41 16.34Q50.10 16.34 49.18 16.16Q48.27 15.98 47.69 15.53Q47.12 15.09 46.86 14.34Q46.60 13.60 46.60 12.47L46.60 12.47Q46.60 11.18 46.86 10.33Q47.12 9.49 47.69 8.99Q48.27 8.49 49.18 8.29Q50.10 8.09 51.41 8.09L51.41 8.09Q52.35 8.09 53.04 8.23Q53.72 8.37 54.21 8.63Q54.70 8.89 55.01 9.26Q55.31 9.63 55.48 10.03Q55.66 10.44 55.72 10.99Q55.79 11.53 55.79 12.14L55.79 12.14L55.68 12.58L47.91 12.58Q47.91 13.48 48.09 14.06Q48.27 14.64 48.68 14.90Q49.09 15.17 49.76 15.24Q50.43 15.31 51.41 15.31L51.41 15.31Q52.32 15.31 52.91 15.26Q53.50 15.21 53.85 15.07Q54.20 14.92 54.34 14.67Q54.48 14.41 54.48 14L54.48 14L55.79 14Q55.79 14.64 55.57 15.08Q55.34 15.53 54.83 15.81Q54.32 16.08 53.48 16.21Q52.64 16.34 51.41 16.34ZM51.41 9.19L51.41 9.19Q50.76 9.19 50.24 9.21Q49.72 9.24 49.34 9.33Q48.95 9.43 48.68 9.60Q48.41 9.78 48.24 10.01Q48.07 10.25 47.99 10.67Q47.91 11.10 47.91 11.70L47.91 11.70L54.48 11.70Q54.48 10.90 54.30 10.45Q54.13 9.99 53.76 9.70Q53.40 9.41 52.81 9.30Q52.23 9.19 51.41 9.19ZM65.41 10.88L64.32 10.88Q64.32 10.38 64.25 10.06Q64.18 9.73 63.91 9.54Q63.64 9.34 63.12 9.27Q62.60 9.19 61.69 9.19L61.69 9.19Q60.81 9.19 60.26 9.34Q59.71 9.50 59.39 9.78Q59.08 10.06 58.96 10.45Q58.85 10.83 58.85 11.31L58.85 11.31L58.85 16.19L57.54 16.19L57.54 8.31L58.85 8.31L58.85 9.56Q58.92 9.35 59.10 9.10Q59.29 8.84 59.66 8.62Q60.04 8.39 60.64 8.24Q61.24 8.09 62.13 8.09L62.13 8.09Q63.16 8.09 63.80 8.27Q64.44 8.46 64.80 8.81Q65.16 9.16 65.29 9.68Q65.41 10.20 65.41 10.88L65.41 10.88Z"></path></g><!----><!----></svg>